<svg width="1723" height="350" viewBox="0 0 1723 350" fill="none" xmlns="http://www.w3.org/2000/svg">
<path d="M174.9 349.9C271.495 349.9 349.8 271.595 349.8 175C349.8 78.4054 271.495 0.0999756 174.9 0.0999756C78.3054 0.0999756 0 78.4054 0 175C0 271.595 78.3054 349.9 174.9 349.9Z" fill="#3D9266"/>
<path d="M142 120.4L162.8 140.6C163.3 141.1 163.6 141.8 163.6 142.5V158.9C163.6 161 161.3 162.3 159.5 161.2L131.2 143C129.8 142.1 127.9 142.7 127.3 144.3C125.6 148.6 122.6 156.7 121.3 161.7C121 162.9 121.5 164.2 122.6 164.7L162.1 185.4C163 185.9 163.5 186.8 163.5 187.8V204.7C163.5 206.7 161.4 208 159.7 207.1L119.1 187.7C117.5 186.9 115.5 188 115.3 189.8C114.7 194.6 113.6 202.9 113.3 206.7C113.2 207.8 113.8 208.9 114.9 209.4L162.2 230.6C163.2 231 163.8 232 163.8 233V250.8C163.8 252.3 165 253.5 166.5 253.5H183.4C184.9 253.5 186.1 252.3 186.1 250.8V232.8C186.1 231.7 186.7 230.8 187.7 230.4L235 209.5C236.1 209 236.7 207.9 236.6 206.8C236.2 203.1 235.4 194.9 234.6 189.8C234.3 188 232.4 187 230.8 187.8L189.8 207.2C188 208 186 206.7 186 204.8V187.9C186 186.9 186.6 186 187.5 185.5L227.5 164.9C228.7 164.3 229.2 162.9 228.8 161.7C227.5 157.8 224.7 149.5 223.1 144.6C222.6 143 220.6 142.3 219.1 143.2L190.4 161.3C188.6 162.4 186.3 161.1 186.3 159V142.7C186.3 142 186.6 141.3 187.1 140.8L208 120.7C208.9 119.8 209.1 118.4 208.4 117.3C204.9 111.9 193.4 96.8 175 96.7C158.6 96.6 146 111.5 141.9 116.9C140.9 117.9 141.1 119.4 142 120.4Z" fill="white"/>
<path d="M435.8 175.7C433.7 175.7 432 175 430.6 173.6C429.2 172.2 428.5 170.4 428.5 168.4V72.4C428.5 70.2 429.2 68.5 430.6 67.1C432 65.7 433.8 65 435.8 65H464.2C471.3 65 477.6 66.6 483.1 69.7C488.6 72.8 492.9 77.1 495.9 82.7C499 88.2 500.5 94.6 500.5 101.8C500.5 108.7 499 114.8 495.9 120.2C492.8 125.6 488.5 129.8 483.1 132.8C477.6 135.8 471.3 137.3 464.2 137.3H443.2V168.4C443.2 170.5 442.5 172.2 441.1 173.6C439.7 175 438 175.7 435.8 175.7ZM443.2 123.7H464.2C468.5 123.7 472.4 122.8 475.7 120.9C479 119 481.6 116.4 483.5 113.1C485.4 109.8 486.3 106 486.3 101.8C486.3 97.3 485.4 93.3 483.5 89.8C481.6 86.3 479 83.6 475.7 81.6C472.4 79.6 468.6 78.6 464.2 78.6H443.2V123.7V123.7Z" fill="#3D9266"/>
<path d="M435.8 176.8C433.4 176.8 431.4 176 429.8 174.4C428.2 172.8 427.4 170.8 427.4 168.4V72.4C427.4 69.9 428.2 67.9 429.9 66.3C431.5 64.7 433.5 63.9 435.9 63.9H464.3C471.5 63.9 478.1 65.5 483.7 68.7C489.3 71.9 493.8 76.4 496.9 82.1C500 87.8 501.6 94.4 501.6 101.7C501.6 108.7 500 115.1 496.9 120.7C493.7 126.2 489.3 130.6 483.7 133.7C478.1 136.8 471.6 138.4 464.3 138.4H444.4V168.4C444.4 170.8 443.6 172.8 442 174.4C440.3 176 438.3 176.8 435.8 176.8ZM435.8 66C434 66 432.5 66.6 431.3 67.8C430.1 69 429.5 70.5 429.5 72.4V168.4C429.5 170.2 430.1 171.7 431.3 172.9C432.5 174.1 434 174.7 435.8 174.7C437.7 174.7 439.2 174.1 440.4 172.9C441.6 171.7 442.2 170.2 442.2 168.4V136.3H464.2C471.1 136.3 477.3 134.8 482.6 131.9C487.9 129 492.1 124.9 495 119.7C498 114.5 499.5 108.5 499.5 101.8C499.5 94.8 498 88.6 495 83.2C492 77.9 487.9 73.6 482.6 70.6C477.3 67.6 471.1 66.1 464.3 66.1H435.8V66ZM464.2 124.7H442.2V77.5H464.2C468.7 77.5 472.8 78.6 476.2 80.6C479.7 82.7 482.4 85.6 484.4 89.2C486.4 92.8 487.4 97 487.4 101.7C487.4 106.1 486.4 110.1 484.4 113.6C482.4 117.1 479.7 119.8 476.2 121.8C472.7 123.7 468.7 124.7 464.2 124.7ZM444.2 122.6H464.1C468.2 122.6 471.9 121.7 475.1 119.9C478.2 118.1 480.7 115.6 482.5 112.5C484.3 109.4 485.2 105.7 485.2 101.7C485.2 97.4 484.3 93.5 482.5 90.2C480.7 86.9 478.2 84.3 475.1 82.4C472 80.5 468.3 79.6 464.2 79.6H444.3V122.6H444.2Z" fill="#3D9266"/>
<path d="M548 175.7C543.8 175.7 540.2 174.6 536.9 172.3C533.7 170 531.2 166.9 529.4 163C527.6 159.1 526.7 154.6 526.7 149.5V72.1C526.7 70 527.4 68.3 528.7 67C530 65.7 531.7 65 533.8 65C535.9 65 537.6 65.7 538.9 67C540.2 68.3 540.9 70 540.9 72.1V149.5C540.9 153 541.6 155.9 542.9 158.2C544.2 160.5 545.9 161.6 548 161.6H551.5C553.4 161.6 554.9 162.3 556.1 163.6C557.3 164.9 557.9 166.6 557.9 168.7C557.9 170.8 557 172.5 555.2 173.8C553.4 175.1 551.1 175.8 548.2 175.8H548V175.7Z" fill="#3D9266"/>
<path d="M548.3 176.8H548C543.6 176.8 539.7 175.6 536.3 173.2C532.9 170.8 530.3 167.6 528.4 163.5C526.5 159.5 525.6 154.8 525.6 149.5V72.1C525.6 69.7 526.4 67.8 527.9 66.2C529.4 64.7 531.4 63.9 533.8 63.9C536.2 63.9 538.1 64.7 539.7 66.2C541.2 67.7 542 69.7 542 72.1V149.5C542 152.8 542.6 155.5 543.8 157.6C544.9 159.5 546.3 160.5 548 160.5H551.5C553.7 160.5 555.5 161.3 556.9 162.8C558.3 164.3 558.9 166.3 558.9 168.6C558.9 171 557.8 173 555.8 174.6C553.9 176.1 551.3 176.8 548.3 176.8ZM533.8 66C532 66 530.6 66.5 529.4 67.7C528.3 68.8 527.7 70.3 527.7 72.1V149.5C527.7 154.4 528.6 158.8 530.3 162.6C532 166.3 534.4 169.3 537.5 171.5C540.5 173.6 544 174.7 548 174.7H548.3C550.9 174.7 553 174.1 554.6 172.9C556.1 171.8 556.9 170.4 556.9 168.6C556.9 166.8 556.4 165.3 555.4 164.2C554.4 163.1 553.2 162.6 551.6 162.6H548C545.5 162.6 543.5 161.3 542 158.7C540.6 156.3 539.9 153.2 539.9 149.5V72.1C539.9 70.3 539.4 68.9 538.2 67.7C537 66.6 535.6 66 533.8 66Z" fill="#3D9266"/>
<path d="M614.3 176.3C607.4 176.3 601.2 174.6 595.7 171.1C590.2 167.6 585.9 163 582.7 157.1C579.5 151.2 577.9 144.5 577.9 137C577.9 129.5 579.6 122.8 583.1 116.9C586.6 110.9 591.2 106.2 597.1 102.8C603 99.3001 609.7 97.6001 617 97.6001C624.3 97.6001 631 99.3001 636.9 102.8C642.8 106.3 647.4 111 650.9 116.9C654.4 122.9 656.1 129.6 656.1 137H650.6C650.6 144.5 649 151.2 645.8 157.1C642.6 163 638.3 167.7 632.8 171.1C627.4 174.6 621.2 176.3 614.3 176.3ZM617.2 163.5C622 163.5 626.3 162.3 630.1 160C633.9 157.7 636.9 154.5 639 150.5C641.2 146.5 642.3 142 642.3 137C642.3 131.9 641.2 127.3 639 123.3C636.8 119.3 633.8 116.1 630.1 113.8C626.3 111.5 622 110.3 617.2 110.3C612.5 110.3 608.2 111.5 604.4 113.8C600.6 116.1 597.5 119.3 595.3 123.3C593.1 127.3 592 131.9 592 137C592 142 593.1 146.5 595.3 150.5C597.5 154.5 600.5 157.7 604.4 160C608.2 162.4 612.4 163.5 617.2 163.5ZM648.9 175.9C646.8 175.9 645.1 175.2 643.7 173.8C642.3 172.4 641.6 170.7 641.6 168.6V147L644.3 132L656.1 137.1V168.7C656.1 170.8 655.4 172.5 654 173.9C652.8 175.2 651 175.9 648.9 175.9Z" fill="#3D9266"/>
<path d="M614.3 177.4C607.2 177.4 600.8 175.6 595.2 172.1C589.6 168.6 585.1 163.7 581.9 157.7C578.7 151.7 577 144.7 577 137.1C577 129.5 578.8 122.5 582.3 116.4C585.8 110.3 590.7 105.4 596.7 101.9C602.7 98.4001 609.6 96.6001 617.2 96.6001C624.7 96.6001 631.6 98.4001 637.6 101.9C643.6 105.4 648.4 110.3 651.9 116.4C655.3 122.3 657.1 129 657.2 136.4V168.7C657.2 171.1 656.4 173.1 654.8 174.6C653.2 176.2 651.2 177 648.9 177C646.5 177 644.5 176.2 643 174.6C641.4 173 640.6 171 640.6 168.7V166.2C638.5 168.4 636.1 170.4 633.4 172.1C627.9 175.6 621.4 177.4 614.3 177.4ZM617.2 98.7001C610 98.7001 603.5 100.4 597.8 103.7C592.1 107 587.5 111.7 584.1 117.4C580.8 123.2 579.1 129.8 579.1 137C579.1 144.3 580.7 150.8 583.7 156.6C586.8 162.3 591 166.9 596.3 170.2C601.6 173.5 607.6 175.2 614.3 175.2C621 175.2 627 173.5 632.3 170.2C635.4 168.2 638.2 165.8 640.6 163V149.7C640.4 150.2 640.1 150.6 639.9 151.1C637.6 155.3 634.5 158.6 630.6 161C626.7 163.4 622.1 164.6 617.1 164.6C612.2 164.6 607.7 163.4 603.7 161C599.7 158.6 596.5 155.3 594.2 151.1C591.9 146.9 590.7 142.2 590.7 137C590.7 131.7 591.9 127 594.2 122.8C596.5 118.6 599.7 115.3 603.7 112.9C607.7 110.5 612.2 109.3 617.1 109.3C622.1 109.3 626.6 110.5 630.6 112.9C634.5 115.3 637.7 118.6 639.9 122.8C641.6 125.9 642.6 129.4 643.1 133.1L643.6 130.4L655.1 135.4C654.9 128.8 653.2 122.7 650.1 117.4C646.8 111.6 642.2 107 636.5 103.7C630.8 100.3 624.3 98.7001 617.2 98.7001ZM642.8 163.8V168.7C642.8 170.5 643.4 172 644.5 173.1C645.7 174.3 647.1 174.8 648.9 174.8C650.7 174.8 652.2 174.2 653.3 173.1C654.5 171.9 655 170.5 655 168.7V138.1H651.6C651.5 145.3 649.8 151.9 646.7 157.6C645.6 159.8 644.3 161.9 642.8 163.8ZM617.2 111.4C612.7 111.4 608.6 112.5 604.9 114.7C601.2 116.9 598.3 120 596.2 123.8C594.1 127.6 593 132.1 593 137C593 141.8 594.1 146.2 596.2 150C598.3 153.8 601.2 156.9 604.9 159.1C608.5 161.3 612.7 162.4 617.2 162.4C621.8 162.4 626 161.3 629.6 159.1C633.2 156.9 636.1 153.8 638.2 150C640.3 146.2 641.3 141.8 641.3 137C641.3 132.1 640.2 127.7 638.2 123.8C636.1 120 633.2 116.9 629.6 114.7C625.9 112.5 621.8 111.4 617.2 111.4ZM645.2 133.4L642.7 147.1V160.2C643.5 159 644.2 157.8 644.9 156.6C648 150.9 649.5 144.3 649.5 137V136H651L645.2 133.4Z" fill="#3D9266"/>
<path d="M699.2 175.9C697.1 175.9 695.4 175.2 694 173.8C692.6 172.4 691.9 170.7 691.9 168.6V105.3C691.9 103.1 692.6 101.4 694 100.1C695.4 98.8 697.1 98.1 699.2 98.1C701.4 98.1 703.1 98.8 704.4 100.1C705.7 101.4 706.4 103.2 706.4 105.3V168.6C706.4 170.7 705.7 172.4 704.4 173.8C703.1 175.2 701.3 175.9 699.2 175.9ZM757.4 175.9C755.3 175.9 753.6 175.2 752.2 173.8C750.8 172.4 750.1 170.7 750.1 168.6V133.7C750.1 128.3 749.1 123.9 747.1 120.5C745.1 117.1 742.4 114.6 739.1 112.9C735.7 111.2 731.9 110.4 727.5 110.4C723.5 110.4 719.9 111.2 716.7 112.8C713.5 114.4 710.9 116.6 709 119.3C707.1 122 706.2 125.1 706.2 128.6H697.3C697.3 122.6 698.7 117.3 701.6 112.6C704.5 107.9 708.4 104.2 713.4 101.5C718.4 98.8 724 97.4 730.3 97.4C736.8 97.4 742.7 98.8 747.8 101.6C753 104.4 757 108.5 760 113.9C763 119.3 764.5 125.9 764.5 133.8V168.7C764.5 170.8 763.8 172.5 762.4 173.9C761.2 175.2 759.5 175.9 757.4 175.9Z" fill="#3D9266"/>
<path d="M757.4 176.9C755 176.9 753 176.1 751.5 174.5C749.9 172.9 749.1 170.9 749.1 168.6V133.7C749.1 128.5 748.1 124.3 746.3 121C744.4 117.8 741.9 115.4 738.7 113.8C735.5 112.2 731.8 111.4 727.6 111.4C723.8 111.4 720.3 112.2 717.3 113.7C714.3 115.2 711.8 117.3 710 119.8C708.2 122.3 707.4 125.2 707.4 128.5V168.5C707.4 170.9 706.6 172.8 705.1 174.4C703.6 176 701.6 176.8 699.1 176.8C696.7 176.8 694.7 176 693.2 174.4C691.6 172.8 690.8 170.8 690.8 168.5V105.2C690.8 102.7 691.6 100.7 693.2 99.2001C694.8 97.7001 696.8 96.9001 699.1 96.9001C701.6 96.9001 703.6 97.7001 705.1 99.2001C706.4 100.5 707.2 102.3 707.4 104.3C709.1 102.8 711 101.5 713.1 100.4C718.2 97.6001 724.1 96.2001 730.5 96.2001C737.2 96.2001 743.2 97.7001 748.5 100.5C753.8 103.4 758.1 107.6 761.1 113.2C764.2 118.7 765.7 125.6 765.7 133.6V168.5C765.7 170.9 764.9 172.9 763.3 174.4C761.8 176.1 759.8 176.9 757.4 176.9ZM727.7 109.4C732.2 109.4 736.2 110.3 739.7 112C743.2 113.7 746.1 116.4 748.2 120C750.3 123.6 751.3 128.2 751.3 133.7V168.6C751.3 170.4 751.9 171.9 753 173C754.2 174.2 755.6 174.7 757.4 174.7C759.2 174.7 760.7 174.1 761.8 173C763 171.8 763.5 170.4 763.5 168.6V133.7C763.5 126.1 762 119.6 759.2 114.4C756.3 109.2 752.4 105.2 747.4 102.5C742.4 99.8001 736.7 98.4001 730.4 98.4001C724.4 98.4001 718.9 99.7001 714 102.4C711.5 103.8 709.3 105.4 707.3 107.3V120.2C707.6 119.7 707.9 119.2 708.2 118.7C710.2 115.9 712.9 113.6 716.2 111.9C719.8 110.3 723.5 109.4 727.7 109.4ZM699.2 99.2001C697.4 99.2001 695.9 99.8001 694.8 100.9C693.6 102 693.1 103.5 693.1 105.4V168.7C693.1 170.5 693.7 172 694.8 173.1C696 174.3 697.4 174.8 699.2 174.8C701.1 174.8 702.6 174.2 703.7 173.1C704.8 171.9 705.4 170.5 705.4 168.7V129.8H696.5V128.7C696.5 122.6 698 117 701 112.2C702.3 110.1 703.8 108.2 705.5 106.5V105.4C705.5 103.5 705 102 703.8 100.9C702.5 99.8001 701.1 99.2001 699.2 99.2001ZM698.5 127.6H705.3V109.6C704.3 110.7 703.4 112 702.6 113.3C700.1 117.5 698.7 122.3 698.5 127.6Z" fill="#3D9266"/>
<path d="M839.3 176.3C831.4 176.3 824.5 174.6 818.4 171.3C812.3 167.9 807.5 163.3 804.1 157.4C800.6 151.5 798.9 144.7 798.9 137C798.9 129.2 800.5 122.4 803.8 116.5C807.1 110.6 811.6 106 817.3 102.6C823.1 99.2 829.7 97.6 837.2 97.6C844.6 97.6 850.9 99.2 856.2 102.5C861.5 105.8 865.5 110.3 868.3 116C871.1 121.7 872.5 128.3 872.5 135.8C872.5 137.6 871.9 139.1 870.7 140.3C869.5 141.5 867.9 142.1 866 142.1H808.8V130.8H865.5L859.7 134.8C859.6 130.1 858.7 125.8 856.9 122.1C855.1 118.4 852.6 115.4 849.2 113.2C845.9 111 841.9 109.9 837.1 109.9C831.7 109.9 827.1 111.1 823.3 113.4C819.5 115.8 816.6 119 814.6 123.1C812.6 127.2 811.6 131.9 811.6 137.1C811.6 142.3 812.8 146.9 815.1 151C817.5 155.1 820.7 158.3 824.9 160.6C829.1 163 833.8 164.1 839.2 164.1C842.1 164.1 845.1 163.6 848.2 162.5C851.3 161.4 853.8 160.2 855.6 158.7C857 157.7 858.6 157.1 860.2 157.1C861.9 157.1 863.3 157.6 864.5 158.6C866.1 160 867 161.6 867.1 163.3C867.2 165 866.4 166.5 864.8 167.7C861.6 170.3 857.6 172.3 852.8 173.9C848.2 175.5 843.6 176.3 839.3 176.3Z" fill="#3D9266"/>
<path d="M839.3 177.4C831.3 177.4 824.1 175.7 817.9 172.2C811.7 168.8 806.7 164 803.2 157.9C799.7 151.9 797.9 144.8 797.9 137C797.9 129.1 799.6 122 802.9 116C806.2 110 810.9 105.1 816.8 101.7C822.7 98.3 829.6 96.5 837.2 96.5C844.7 96.5 851.3 98.2 856.8 101.6C862.2 105 866.5 109.6 869.3 115.5C872.1 121.3 873.6 128.2 873.6 135.7C873.6 137.8 872.9 139.5 871.4 140.9C870 142.3 868.2 143 866 143H813.3C813.9 145.6 814.8 148.1 816.1 150.4C818.4 154.3 821.5 157.4 825.5 159.7C829.5 162 834.1 163.1 839.3 163.1C842.1 163.1 845 162.6 848 161.5C851 160.5 853.4 159.2 855.2 157.9C856.8 156.7 858.5 156.1 860.4 156.1C862.3 156 864 156.6 865.4 157.8C867.2 159.4 868.2 161.2 868.3 163.2C868.4 165.3 867.5 167 865.6 168.5C862.3 171.1 858.2 173.3 853.3 174.9C848.4 176.5 843.7 177.4 839.3 177.4ZM837.1 98.7C829.9 98.7 823.4 100.3 817.8 103.6C812.2 106.8 807.8 111.4 804.7 117.1C801.5 122.8 799.9 129.5 799.9 137.1C799.9 144.5 801.6 151.2 804.9 156.9C808.2 162.6 812.9 167.2 818.8 170.4C824.7 173.7 831.6 175.3 839.2 175.3C843.4 175.3 847.9 174.5 852.5 172.9C857.1 171.3 861.1 169.3 864.2 166.8C865.5 165.8 866.1 164.6 866.1 163.3C866 161.9 865.3 160.6 863.9 159.4C862.9 158.5 861.7 158.1 860.3 158.2C858.8 158.2 857.5 158.7 856.3 159.6C854.3 161.1 851.7 162.4 848.6 163.5C845.4 164.6 842.3 165.2 839.2 165.2C833.6 165.2 828.7 164 824.4 161.5C820.1 159.1 816.7 155.7 814.2 151.5C812.7 148.9 811.7 146.1 811.1 143.1H807.7V129.6H811.3C811.8 127.1 812.6 124.8 813.6 122.6C815.7 118.3 818.7 114.9 822.7 112.4C826.7 109.9 831.5 108.7 837.1 108.7C842 108.7 846.3 109.9 849.7 112.1C853.2 114.4 855.9 117.5 857.7 121.4C858.9 123.9 859.7 126.6 860.2 129.5H868.8L858.6 136.5V134.6C858.6 133.6 858.5 132.6 858.4 131.7H813C812.7 133.4 812.6 135.2 812.6 137C812.6 138.3 812.7 139.6 812.8 140.9H865.8C867.4 140.9 868.7 140.4 869.7 139.4C870.7 138.4 871.2 137.2 871.2 135.7C871.2 128.4 869.8 121.9 867.1 116.4C864.4 110.9 860.5 106.5 855.4 103.4C850.5 100.2 844.3 98.7 837.1 98.7ZM809.8 140.9H810.8C810.6 139.6 810.6 138.3 810.6 137C810.6 135.2 810.7 133.4 811 131.7H809.9V140.9H809.8ZM860.6 131.7C860.6 132 860.7 132.3 860.7 132.7L862.1 131.7H860.6ZM813.5 129.6H858.2C857.8 127 857 124.6 855.9 122.4C854.2 118.9 851.7 116 848.6 114C845.5 112 841.6 110.9 837.1 110.9C831.9 110.9 827.5 112 823.8 114.3C820.2 116.5 817.4 119.7 815.5 123.6C814.6 125.4 813.9 127.4 813.5 129.6Z" fill="#3D9266"/>
<path d="M901.8 113.2C899.8 113.2 898.2 112.6 897 111.5C895.8 110.4 895.2 108.9 895.2 107.2C895.2 105.3 895.8 103.8 897 102.7C898.2 101.6 899.8 101 901.8 101H934.6C936.6 101 938.2 101.6 939.4 102.7C940.6 103.8 941.2 105.3 941.2 107.2C941.2 108.9 940.6 110.3 939.4 111.5C938.2 112.6 936.6 113.2 934.6 113.2H901.8ZM933.3 175.7C928.6 175.7 924.3 174.5 920.5 172.1C916.7 169.7 913.7 166.4 911.6 162.2C909.4 158 908.3 153.4 908.3 148.2V80.5C908.3 78.4 909 76.7 910.3 75.4C911.6 74.1 913.3 73.4 915.4 73.4C917.5 73.4 919.2 74.1 920.5 75.4C921.8 76.7 922.5 78.4 922.5 80.5V148.2C922.5 152 923.5 155.1 925.6 157.7C927.7 160.3 930.2 161.5 933.3 161.5H938.1C939.8 161.5 941.2 162.2 942.4 163.5C943.6 164.8 944.2 166.5 944.2 168.6C944.2 170.7 943.4 172.4 941.9 173.7C940.3 175 938.3 175.7 935.9 175.7H933.3V175.7Z" fill="#3D9266"/>
<path d="M935.9 176.8H933.3C928.4 176.8 923.9 175.5 920 173C916.1 170.5 912.9 167 910.7 162.7C908.5 158.4 907.3 153.5 907.3 148.2V114.2H901.8C899.5 114.2 897.7 113.5 896.3 112.2C894.9 110.9 894.1 109.2 894.1 107.2C894.1 105 894.8 103.2 896.3 101.9C897.7 100.6 899.6 99.9 901.8 99.9H907.3V80.5C907.3 78.1 908.1 76.2001 909.6 74.6001C911.1 73.1001 913.1 72.3 915.5 72.3C917.9 72.3 919.8 73.1001 921.3 74.6001C922.8 76.1001 923.6 78.1 923.6 80.5V99.9H934.6C936.8 99.9 938.7 100.6 940.1 101.9C941.5 103.2 942.3 105 942.3 107.2C942.3 109.2 941.6 110.9 940.1 112.2C938.7 113.5 936.8 114.2 934.6 114.2H923.6V148.2C923.6 151.7 924.6 154.7 926.5 157C928.4 159.3 930.6 160.4 933.3 160.4H938.1C940.1 160.4 941.8 161.2 943.2 162.7C944.6 164.2 945.2 166.2 945.2 168.5C945.2 170.9 944.3 172.9 942.5 174.4C940.8 176 938.6 176.8 935.9 176.8ZM909.4 114.3V148.3C909.4 153.3 910.5 157.9 912.5 161.9C914.6 165.9 917.5 169.1 921.1 171.4C924.7 173.7 928.8 174.8 933.3 174.8H935.9C938.1 174.8 939.9 174.2 941.2 173.1C942.5 172 943.2 170.6 943.2 168.8C943.2 167 942.7 165.5 941.7 164.4C940.7 163.3 939.6 162.8 938.2 162.8H933.4C930.1 162.8 927.2 161.4 924.9 158.6C922.7 155.9 921.5 152.4 921.5 148.4V114.4H909.4V114.3ZM923.6 112.1H934.6C936.3 112.1 937.7 111.6 938.7 110.7C939.7 109.8 940.2 108.6 940.2 107.2C940.2 105.6 939.7 104.4 938.7 103.4C937.7 102.4 936.3 102 934.6 102H923.6V112.1ZM909.4 112.1H921.5V102H909.4V112.1ZM901.8 102.1C900.1 102.1 898.7 102.6 897.7 103.5C896.7 104.4 896.2 105.7 896.2 107.3C896.2 108.7 896.7 109.8 897.7 110.8C898.7 111.8 900.1 112.2 901.8 112.2H907.3V102.1H901.8V102.1ZM909.4 99.9H921.5V80.5C921.5 78.7 921 77.3001 919.8 76.1001C918.7 75.0001 917.2 74.4 915.4 74.4C913.6 74.4 912.2 74.9001 911 76.1001C909.9 77.2001 909.3 78.7 909.3 80.5V99.9H909.4Z" fill="#3D9266"/>
<path d="M1008.5 176.3C1001.6 176.3 995.4 174.6 989.9 171.1C984.4 167.6 980.1 163 976.9 157.1C973.7 151.2 972.1 144.5 972.1 137C972.1 129.5 973.8 122.8 977.3 116.9C980.8 110.9 985.4 106.2 991.3 102.8C997.2 99.3001 1003.9 97.6001 1011.2 97.6001C1018.5 97.6001 1025.2 99.3001 1031.1 102.8C1037 106.3 1041.6 111 1045.1 116.9C1048.6 122.9 1050.3 129.6 1050.3 137H1044.8C1044.8 144.5 1043.2 151.2 1040 157.1C1036.8 163 1032.5 167.7 1027 171.1C1021.6 174.6 1015.4 176.3 1008.5 176.3ZM1011.3 163.5C1016.1 163.5 1020.4 162.3 1024.2 160C1028 157.7 1031 154.5 1033.1 150.5C1035.3 146.5 1036.4 142 1036.4 137C1036.4 131.9 1035.3 127.3 1033.1 123.3C1030.9 119.3 1027.9 116.1 1024.2 113.8C1020.4 111.5 1016.1 110.3 1011.3 110.3C1006.6 110.3 1002.3 111.5 998.5 113.8C994.7 116.1 991.6 119.3 989.4 123.3C987.2 127.3 986.1 131.9 986.1 137C986.1 142 987.2 146.5 989.4 150.5C991.6 154.5 994.6 157.7 998.5 160C1002.4 162.3 1006.6 163.5 1011.3 163.5ZM1043.1 175.9C1041 175.9 1039.3 175.2 1037.9 173.8C1036.5 172.4 1035.8 170.7 1035.8 168.6V147L1038.5 132L1050.3 137.1V168.7C1050.3 170.8 1049.6 172.5 1048.2 173.9C1046.9 175.2 1045.1 175.9 1043.1 175.9Z" fill="#3D9266"/>
<path d="M1008.5 177.4C1001.4 177.4 995 175.6 989.4 172.1C983.8 168.6 979.3 163.7 976.1 157.7C972.9 151.7 971.2 144.7 971.2 137.1C971.2 129.5 973 122.5 976.5 116.4C980 110.3 984.9 105.4 990.9 101.9C996.9 98.4001 1003.8 96.6001 1011.4 96.6001C1018.9 96.6001 1025.8 98.4001 1031.8 101.9C1037.8 105.4 1042.6 110.3 1046.1 116.4C1049.5 122.3 1051.3 129 1051.4 136.4V168.7C1051.4 171.1 1050.6 173.1 1049 174.6C1047.4 176.2 1045.4 177 1043.1 177C1040.7 177 1038.7 176.2 1037.2 174.6C1035.6 173 1034.8 171 1034.8 168.7V166.2C1032.7 168.4 1030.3 170.4 1027.6 172.1C1022 175.6 1015.5 177.4 1008.5 177.4ZM1011.3 98.7001C1004.1 98.7001 997.6 100.4 991.9 103.7C986.2 107 981.6 111.7 978.2 117.4C974.9 123.2 973.2 129.8 973.2 137C973.2 144.3 974.8 150.8 977.8 156.6C980.9 162.3 985.1 166.9 990.4 170.2C995.7 173.5 1001.7 175.2 1008.4 175.2C1015.1 175.2 1021.1 173.5 1026.4 170.2C1029.5 168.2 1032.3 165.8 1034.7 163V149.7C1034.5 150.2 1034.2 150.6 1034 151.1C1031.7 155.3 1028.6 158.6 1024.7 161C1020.8 163.4 1016.2 164.6 1011.2 164.6C1006.3 164.6 1001.8 163.4 997.8 161C993.8 158.6 990.6 155.3 988.3 151.1C986 146.9 984.8 142.2 984.8 137C984.8 131.7 986 127 988.3 122.8C990.6 118.6 993.8 115.3 997.8 112.9C1001.8 110.5 1006.3 109.3 1011.2 109.3C1016.2 109.3 1020.7 110.5 1024.7 112.9C1028.6 115.3 1031.8 118.6 1034 122.8C1035.7 125.9 1036.7 129.4 1037.2 133.1L1037.7 130.4L1049.2 135.4C1049 128.8 1047.3 122.7 1044.2 117.4C1040.9 111.6 1036.3 107 1030.6 103.7C1024.9 100.3 1018.4 98.7001 1011.3 98.7001ZM1036.9 163.8V168.7C1036.9 170.5 1037.5 172 1038.6 173.1C1039.8 174.3 1041.2 174.8 1043 174.8C1044.8 174.8 1046.3 174.2 1047.4 173.1C1048.6 171.9 1049.1 170.5 1049.1 168.7V138.1H1045.7C1045.6 145.3 1043.9 151.8 1040.8 157.6C1039.8 159.8 1038.4 161.9 1036.9 163.8ZM1011.3 111.4C1006.8 111.4 1002.7 112.5 999 114.7C995.3 116.9 992.4 120 990.3 123.8C988.2 127.6 987.1 132.1 987.1 137C987.1 141.8 988.2 146.2 990.3 150C992.4 153.8 995.3 156.9 999 159.1C1002.6 161.3 1006.8 162.4 1011.3 162.4C1015.9 162.4 1020.1 161.3 1023.7 159.1C1027.3 156.9 1030.2 153.8 1032.3 150C1034.4 146.2 1035.4 141.8 1035.4 137C1035.4 132.1 1034.3 127.7 1032.3 123.8C1030.2 120 1027.3 116.9 1023.7 114.7C1020.1 112.5 1015.9 111.4 1011.3 111.4ZM1039.3 133.4L1036.8 147.1V160.2C1037.6 159 1038.3 157.8 1039 156.6C1042.1 150.9 1043.6 144.3 1043.6 137V136H1045.1L1039.3 133.4Z" fill="#3D9266"/>
<path d="M1150.6 175.7C1148.5 175.7 1146.8 175 1145.4 173.6C1144 172.2 1143.3 170.4 1143.3 168.4V72.4C1143.3 70.2 1144 68.5 1145.4 67.1C1146.8 65.7 1148.6 65 1150.6 65C1152.8 65 1154.5 65.7 1155.9 67.1C1157.3 68.5 1158 70.2 1158 72.4V113.1H1223.8V72.4C1223.8 70.2 1224.5 68.5 1225.9 67.1C1227.3 65.7 1229.1 65 1231.1 65C1233.3 65 1235 65.7 1236.3 67.1C1237.6 68.5 1238.3 70.2 1238.3 72.4V168.4C1238.3 170.5 1237.6 172.2 1236.3 173.6C1235 175 1233.2 175.7 1231.1 175.7C1229 175.7 1227.3 175 1225.9 173.6C1224.5 172.2 1223.8 170.4 1223.8 168.4V126.1H1158V168.4C1158 170.5 1157.3 172.2 1155.9 173.6C1154.5 175 1152.7 175.7 1150.6 175.7Z" fill="#3D9266"/>
<path d="M1231.1 176.8C1228.7 176.8 1226.7 176 1225.1 174.4C1223.5 172.8 1222.7 170.8 1222.7 168.4V127.2H1159V168.4C1159 170.8 1158.2 172.8 1156.6 174.4C1155 176 1153 176.8 1150.5 176.8C1148.1 176.8 1146.1 176 1144.5 174.4C1142.9 172.8 1142.1 170.8 1142.1 168.4V72.4C1142.1 69.9 1142.9 67.9 1144.6 66.3C1146.2 64.7 1148.2 63.9 1150.6 63.9C1153.1 63.9 1155.1 64.7 1156.7 66.3C1158.3 67.9 1159.1 69.9 1159.1 72.4V112H1222.8V72.4C1222.8 69.9 1223.6 67.9 1225.2 66.3C1226.8 64.7 1228.8 63.9 1231.2 63.9C1233.7 63.9 1235.7 64.7 1237.2 66.3C1238.7 67.9 1239.5 69.9 1239.5 72.4V168.4C1239.5 170.7 1238.7 172.8 1237.2 174.4C1235.6 176 1233.6 176.8 1231.1 176.8ZM1156.9 125H1224.8V168.3C1224.8 170.1 1225.4 171.6 1226.6 172.8C1227.8 174 1229.3 174.6 1231.1 174.6C1233 174.6 1234.4 174 1235.6 172.8C1236.7 171.6 1237.3 170.1 1237.3 168.3V72.3C1237.3 70.4 1236.7 68.9 1235.6 67.7C1234.5 66.5 1233 66 1231.1 66C1229.3 66 1227.8 66.6 1226.6 67.8C1225.4 69 1224.8 70.5 1224.8 72.4V114.2H1156.9V72.4C1156.9 70.5 1156.3 69 1155.2 67.8C1154 66.6 1152.5 66.1 1150.6 66.1C1148.8 66.1 1147.3 66.7 1146.1 67.9C1144.9 69.1 1144.3 70.6 1144.3 72.5V168.5C1144.3 170.3 1144.9 171.8 1146.1 173C1147.3 174.2 1148.8 174.8 1150.6 174.8C1152.5 174.8 1154 174.2 1155.2 173C1156.4 171.8 1157 170.3 1157 168.5V125H1156.9Z" fill="#3D9266"/>
<path d="M1312.1 176.5C1305.6 176.5 1299.7 175.1 1294.6 172.3C1289.4 169.5 1285.4 165.4 1282.4 160C1279.4 154.6 1277.9 148 1277.9 140.1V105.2C1277.9 103.1 1278.6 101.4 1280 100C1281.4 98.6 1283.1 97.9 1285.2 97.9C1287.3 97.9 1289 98.6 1290.4 100C1291.8 101.4 1292.5 103.1 1292.5 105.2V140.1C1292.5 145.4 1293.5 149.8 1295.5 153.2C1297.5 156.7 1300.2 159.2 1303.6 160.9C1307 162.6 1310.8 163.4 1315.1 163.4C1319.2 163.4 1322.8 162.6 1325.9 161C1329.1 159.4 1331.6 157.2 1333.5 154.5C1335.4 151.8 1336.3 148.7 1336.3 145.3H1345.2C1345.2 151.2 1343.8 156.5 1340.9 161.2C1338 165.9 1334.1 169.7 1329.1 172.4C1324.1 175.1 1318.4 176.5 1312.1 176.5ZM1343.4 175.7C1341.3 175.7 1339.6 175 1338.2 173.6C1336.8 172.2 1336.1 170.5 1336.1 168.4V105.1C1336.1 102.9 1336.8 101.2 1338.2 99.9C1339.6 98.6 1341.3 97.9 1343.4 97.9C1345.6 97.9 1347.3 98.6 1348.6 99.9C1349.9 101.2 1350.6 103 1350.6 105.1V168.4C1350.6 170.5 1349.9 172.2 1348.6 173.6C1347.4 175.1 1345.6 175.7 1343.4 175.7Z" fill="#3D9266"/>
<path d="M1312.1 177.5C1305.4 177.5 1299.4 176 1294.1 173.2C1288.8 170.3 1284.5 166.1 1281.5 160.5C1278.4 155 1276.9 148.1 1276.9 140.1V105.2C1276.9 102.8 1277.7 100.8 1279.3 99.3C1280.9 97.7 1282.9 96.9 1285.2 96.9C1287.6 96.9 1289.6 97.7 1291.1 99.3C1292.7 100.9 1293.5 102.9 1293.5 105.2V140.1C1293.5 145.2 1294.5 149.4 1296.3 152.7C1298.2 155.9 1300.7 158.4 1303.9 159.9C1307.1 161.5 1310.8 162.3 1314.9 162.3C1318.8 162.3 1322.3 161.5 1325.3 160C1328.3 158.5 1330.7 156.4 1332.5 153.8C1334.3 151.2 1335.2 148.3 1335.2 145.2V105.2C1335.2 102.7 1336 100.7 1337.6 99.2C1339.2 97.7 1341.2 96.9 1343.5 96.9C1346 96.9 1348 97.7 1349.5 99.2C1351 100.7 1351.8 102.7 1351.8 105.2V168.5C1351.8 170.9 1351 172.8 1349.5 174.4C1348 176 1346 176.8 1343.5 176.8C1341.1 176.8 1339.1 176 1337.6 174.4C1336.2 173 1335.4 171.3 1335.3 169.3C1333.6 170.8 1331.7 172.1 1329.7 173.2C1324.5 176.1 1318.6 177.5 1312.1 177.5ZM1285.2 99.1C1283.4 99.1 1281.9 99.7 1280.8 100.8C1279.6 102 1279.1 103.4 1279.1 105.2V140.1C1279.1 147.7 1280.6 154.2 1283.4 159.4C1286.3 164.6 1290.2 168.6 1295.2 171.2C1300.2 173.9 1305.9 175.3 1312.2 175.3C1318.3 175.3 1323.9 174 1328.6 171.3C1331.1 169.9 1333.3 168.3 1335.2 166.4V153.4C1334.9 153.9 1334.6 154.4 1334.3 154.9C1332.3 157.8 1329.6 160.1 1326.3 161.8C1323 163.5 1319.2 164.3 1315 164.3C1310.6 164.3 1306.6 163.4 1303.1 161.7C1299.5 160 1296.6 157.2 1294.6 153.6C1292.5 150 1291.5 145.4 1291.5 140V105.1C1291.5 103.3 1290.9 101.8 1289.8 100.7C1288.4 99.6 1287 99.1 1285.2 99.1ZM1337.3 167.4V168.5C1337.3 170.3 1337.9 171.8 1339 172.9C1340.2 174.1 1341.6 174.6 1343.4 174.6C1345.3 174.6 1346.8 174 1347.9 172.9C1349 171.7 1349.6 170.3 1349.6 168.5V105.2C1349.6 103.3 1349.1 101.8 1347.9 100.7C1346.8 99.6 1345.3 99 1343.4 99C1341.6 99 1340.1 99.6 1339 100.7C1337.8 101.8 1337.3 103.3 1337.3 105.2V144.1H1346.2V145.2C1346.2 151.2 1344.7 156.8 1341.7 161.6C1340.4 163.8 1339 165.7 1337.3 167.4ZM1337.3 146.3V164.3C1338.3 163.1 1339.2 161.9 1340 160.6C1342.6 156.3 1344 151.5 1344.2 146.3H1337.3Z" fill="#3D9266"/>
<path d="M1426.8 176.3C1419 176.3 1412 174.6 1405.9 171.3C1399.8 167.9 1395 163.3 1391.6 157.4C1388.1 151.5 1386.4 144.7 1386.4 137C1386.4 129.2 1388 122.4 1391.3 116.5C1394.6 110.6 1399.1 106 1404.8 102.6C1410.6 99.2 1417.2 97.6 1424.7 97.6C1432.1 97.6 1438.4 99.2 1443.7 102.5C1449 105.8 1453 110.3 1455.8 116C1458.6 121.7 1460 128.3 1460 135.8C1460 137.6 1459.4 139.1 1458.2 140.3C1457 141.5 1455.4 142.1 1453.5 142.1H1396.3V130.8H1453L1447.2 134.8C1447.1 130.1 1446.2 125.8 1444.4 122.1C1442.6 118.4 1440.1 115.4 1436.7 113.2C1433.4 111 1429.4 109.9 1424.6 109.9C1419.2 109.9 1414.6 111.1 1410.8 113.4C1407 115.8 1404.1 119 1402.1 123.1C1400.1 127.2 1399.1 131.9 1399.1 137.1C1399.1 142.3 1400.3 146.9 1402.6 151C1405 155.1 1408.2 158.3 1412.4 160.6C1416.6 163 1421.3 164.1 1426.7 164.1C1429.6 164.1 1432.6 163.6 1435.7 162.5C1438.8 161.4 1441.3 160.2 1443.1 158.7C1444.5 157.7 1446.1 157.1 1447.7 157.1C1449.4 157.1 1450.8 157.6 1452 158.6C1453.6 160 1454.5 161.6 1454.6 163.3C1454.7 165 1453.9 166.5 1452.3 167.7C1449.1 170.3 1445.1 172.3 1440.3 173.9C1435.7 175.5 1431.2 176.3 1426.8 176.3Z" fill="#3D9266"/>
<path d="M1426.8 177.4C1418.8 177.4 1411.6 175.7 1405.4 172.2C1399.2 168.8 1394.2 164 1390.7 157.9C1387.2 151.9 1385.4 144.8 1385.4 137C1385.4 129.1 1387.1 122 1390.4 116C1393.7 110 1398.4 105.1 1404.3 101.7C1410.2 98.3 1417.1 96.5 1424.7 96.5C1432.2 96.5 1438.8 98.2 1444.3 101.6C1449.7 105 1454 109.6 1456.8 115.5C1459.6 121.3 1461.1 128.2 1461.1 135.7C1461.1 137.8 1460.4 139.5 1458.9 140.9C1457.5 142.3 1455.7 143 1453.5 143H1400.8C1401.4 145.6 1402.3 148.1 1403.6 150.4C1405.9 154.3 1409 157.4 1413 159.7C1417 162 1421.6 163.1 1426.8 163.1C1429.6 163.1 1432.5 162.6 1435.5 161.5C1438.5 160.5 1440.9 159.2 1442.7 157.9C1444.3 156.7 1446 156.1 1447.9 156.1C1449.8 156.1 1451.5 156.6 1452.9 157.8C1454.7 159.4 1455.7 161.2 1455.8 163.2C1455.9 165.3 1455 167 1453.1 168.5C1449.8 171.1 1445.7 173.3 1440.8 174.9C1436 176.5 1431.3 177.4 1426.8 177.4ZM1424.7 98.7C1417.5 98.7 1411 100.3 1405.4 103.6C1399.8 106.8 1395.4 111.4 1392.3 117.1C1389.1 122.8 1387.5 129.5 1387.5 137.1C1387.5 144.5 1389.2 151.2 1392.5 156.9C1395.8 162.6 1400.5 167.2 1406.4 170.4C1412.3 173.7 1419.2 175.3 1426.8 175.3C1431 175.3 1435.5 174.5 1440.1 172.9C1444.7 171.3 1448.7 169.3 1451.8 166.8C1453.1 165.8 1453.7 164.6 1453.7 163.3C1453.6 161.9 1452.9 160.6 1451.5 159.4C1450.5 158.5 1449.3 158.1 1447.9 158.2C1446.5 158.2 1445.1 158.7 1443.9 159.6C1441.9 161.1 1439.3 162.4 1436.2 163.5C1433 164.6 1429.9 165.2 1426.8 165.2C1421.2 165.2 1416.3 164 1412 161.5C1407.7 159.1 1404.3 155.7 1401.8 151.5C1400.3 148.9 1399.3 146.1 1398.7 143.1H1395.3V129.6H1398.9C1399.4 127.1 1400.2 124.8 1401.2 122.6C1403.3 118.3 1406.3 114.9 1410.3 112.4C1414.3 109.9 1419.1 108.7 1424.7 108.7C1429.6 108.7 1433.9 109.9 1437.3 112.1C1440.8 114.4 1443.5 117.5 1445.3 121.4C1446.5 123.9 1447.3 126.6 1447.8 129.5H1456.4L1446.2 136.5V134.6C1446.2 133.6 1446.1 132.6 1446 131.7H1400.6C1400.3 133.4 1400.2 135.2 1400.2 137C1400.2 138.3 1400.3 139.6 1400.4 140.9H1453.4C1455 140.9 1456.3 140.4 1457.4 139.4C1458.4 138.4 1458.9 137.2 1458.9 135.7C1458.9 128.4 1457.5 121.9 1454.8 116.4C1452.1 110.9 1448.2 106.5 1443.1 103.4C1438.1 100.2 1431.8 98.7 1424.7 98.7ZM1397.4 140.9H1398.4C1398.2 139.6 1398.2 138.3 1398.2 137C1398.2 135.2 1398.3 133.4 1398.6 131.7H1397.5V140.9H1397.4ZM1448.1 131.7C1448.1 132 1448.2 132.3 1448.2 132.7L1449.6 131.7H1448.1ZM1401 129.6H1445.7C1445.3 127 1444.5 124.6 1443.4 122.4C1441.7 118.9 1439.2 116 1436.1 114C1433 112 1429.1 110.9 1424.6 110.9C1419.4 110.9 1415 112 1411.3 114.3C1407.7 116.5 1404.9 119.7 1403 123.6C1402.2 125.4 1401.5 127.4 1401 129.6Z" fill="#3D9266"/>
<path d="M1499.7 175.7C1497.4 175.7 1495.7 175.1 1494.5 173.9C1493.3 172.7 1492.7 170.9 1492.7 168.6V105.2C1492.7 102.9 1493.3 101.2 1494.5 100C1495.7 98.8 1497.5 98.2 1499.7 98.2C1502.1 98.2 1503.8 98.8 1505 100C1506.2 101.2 1506.8 103 1506.8 105.3V168.7C1506.8 171 1506.2 172.7 1505 173.9C1503.9 175.1 1502.1 175.7 1499.7 175.7ZM1499.6 127.2C1499.6 121.5 1501 116.4 1503.8 112C1506.6 107.5 1510.3 103.9 1515.1 101.3C1519.8 98.7 1525 97.3 1530.7 97.3C1536.4 97.3 1540.6 98.2001 1543.4 100.1C1546.2 101.9 1547.3 104.1 1546.6 106.7C1546.3 108 1545.8 109 1545 109.7C1544.2 110.4 1543.3 110.9 1542.2 111C1541.2 111.2 1540 111.1 1538.8 110.9C1532.7 109.7 1527.3 109.6 1522.5 110.6C1517.7 111.6 1513.9 113.6 1511.1 116.4C1508.3 119.2 1506.9 122.8 1506.9 127.2H1499.6V127.2Z" fill="#3D9266"/>
<path d="M1499.7 176.8C1497.2 176.8 1495.1 176.1 1493.7 174.7C1492.3 173.3 1491.5 171.3 1491.5 168.6V105.2C1491.5 102.7 1492.2 100.6 1493.7 99.2001C1495.1 97.8001 1497.1 97.0001 1499.7 97.0001C1502.3 97.0001 1504.4 97.7001 1505.8 99.1001C1507.2 100.5 1507.9 102.5 1507.9 105.2C1509.9 103.3 1512.1 101.7 1514.6 100.3C1519.5 97.6001 1524.9 96.2001 1530.7 96.2001C1536.6 96.2001 1541 97.2001 1544 99.1001C1548 101.7 1548.2 104.8 1547.6 106.8C1547.3 108.3 1546.6 109.5 1545.6 110.4C1544.6 111.2 1543.5 111.8 1542.3 112C1541.1 112.2 1539.8 112.2 1538.5 111.8C1532.6 110.6 1527.3 110.5 1522.6 111.5C1518 112.5 1514.3 114.4 1511.7 117C1509.1 119.7 1507.8 122.9 1507.8 127V168.4C1507.8 170.9 1507.1 173 1505.7 174.4C1504.4 176.1 1502.4 176.8 1499.7 176.8ZM1499.7 99.2001C1497.7 99.2001 1496.2 99.7001 1495.2 100.7C1494.2 101.7 1493.7 103.2 1493.7 105.2V168.6C1493.7 170.7 1494.2 172.2 1495.2 173.2C1496.2 174.2 1497.7 174.7 1499.7 174.7C1501.8 174.7 1503.3 174.2 1504.3 173.2C1505.3 172.2 1505.8 170.7 1505.8 168.7V128.3H1498.6V127.2C1498.6 121.4 1500.1 116 1502.9 111.4C1503.8 110 1504.7 108.7 1505.8 107.5V105.3C1505.8 103.2 1505.3 101.7 1504.3 100.7C1503.3 99.7001 1501.8 99.2001 1499.7 99.2001ZM1500.7 126.2H1505.8V110.9C1505.4 111.4 1505.1 112 1504.7 112.5C1502.2 116.6 1500.8 121.2 1500.7 126.2ZM1507.9 108.3V118.8C1508.5 117.7 1509.3 116.6 1510.3 115.7C1513.2 112.7 1517.2 110.7 1522.2 109.6C1527.1 108.5 1532.8 108.6 1538.9 109.9C1540 110.2 1541 110.2 1541.9 110C1542.8 109.8 1543.5 109.5 1544.2 108.9C1544.8 108.3 1545.3 107.5 1545.5 106.4C1545.9 105 1545.9 103 1542.8 100.9C1540.2 99.2001 1536.1 98.3001 1530.7 98.3001C1525.2 98.3001 1520.2 99.6001 1515.6 102.1C1512.6 103.9 1510.1 105.9 1507.9 108.3Z" fill="#3D9266"/>
<path d="M1572.5 113.2C1570.5 113.2 1568.9 112.6 1567.7 111.5C1566.5 110.4 1565.9 108.9 1565.9 107.2C1565.9 105.3 1566.5 103.8 1567.7 102.7C1568.9 101.6 1570.5 101 1572.5 101H1605.3C1607.3 101 1608.9 101.6 1610.1 102.7C1611.3 103.8 1611.9 105.3 1611.9 107.2C1611.9 108.9 1611.3 110.3 1610.1 111.5C1608.9 112.6 1607.3 113.2 1605.3 113.2H1572.5ZM1604 175.7C1599.3 175.7 1595 174.5 1591.2 172.1C1587.4 169.7 1584.4 166.4 1582.3 162.2C1580.1 158 1579 153.4 1579 148.2V80.5C1579 78.4 1579.7 76.7 1581 75.4C1582.3 74.1 1584 73.4 1586.1 73.4C1588.2 73.4 1589.9 74.1 1591.2 75.4C1592.5 76.7 1593.2 78.4 1593.2 80.5V148.2C1593.2 152 1594.2 155.1 1596.3 157.7C1598.4 160.3 1600.9 161.5 1604 161.5H1608.8C1610.5 161.5 1611.9 162.2 1613.1 163.5C1614.3 164.8 1614.9 166.5 1614.9 168.6C1614.9 170.7 1614.1 172.4 1612.6 173.7C1611 175 1609 175.7 1606.6 175.7H1604V175.7Z" fill="#3D9266"/>
<path d="M1606.5 176.8H1603.9C1599 176.8 1594.5 175.5 1590.6 173C1586.7 170.5 1583.5 167 1581.3 162.7C1579.1 158.4 1577.9 153.5 1577.9 148.2V114.2H1572.4C1570.1 114.2 1568.3 113.5 1566.9 112.2C1565.5 110.9 1564.7 109.2 1564.7 107.2C1564.7 105 1565.4 103.2 1566.9 101.9C1568.3 100.6 1570.2 99.9 1572.4 99.9H1577.9V80.5C1577.9 78.1 1578.7 76.2001 1580.2 74.6001C1581.7 73.1001 1583.7 72.3 1586.1 72.3C1588.5 72.3 1590.4 73.1001 1592 74.6001C1593.5 76.1001 1594.3 78.1 1594.3 80.5V99.9H1605.3C1607.5 99.9 1609.4 100.6 1610.8 101.9C1612.3 103.2 1613 105 1613 107.2C1613 109.2 1612.3 110.9 1610.8 112.2C1609.4 113.5 1607.5 114.2 1605.3 114.2H1594.3V148.2C1594.3 151.7 1595.3 154.7 1597.2 157C1599.1 159.3 1601.3 160.4 1604 160.4H1608.8C1610.8 160.4 1612.5 161.2 1613.9 162.7C1615.3 164.2 1615.9 166.2 1615.9 168.5C1615.9 170.9 1615 172.9 1613.2 174.4C1611.5 176 1609.2 176.8 1606.5 176.8ZM1580.1 114.3V148.3C1580.1 153.3 1581.2 157.9 1583.2 161.9C1585.3 165.9 1588.2 169.1 1591.8 171.4C1595.4 173.7 1599.5 174.8 1604 174.8H1606.6C1608.8 174.8 1610.6 174.2 1611.9 173.1C1613.2 172 1613.9 170.6 1613.9 168.8C1613.9 167 1613.4 165.5 1612.4 164.4C1611.4 163.3 1610.3 162.8 1608.9 162.8H1604.1C1600.8 162.8 1597.9 161.4 1595.6 158.6C1593.4 155.9 1592.2 152.4 1592.2 148.4V114.4H1580.1V114.3ZM1594.2 112.1H1605.2C1606.9 112.1 1608.3 111.6 1609.3 110.7C1610.3 109.8 1610.8 108.6 1610.8 107.2C1610.8 105.6 1610.3 104.4 1609.3 103.4C1608.3 102.4 1606.9 102 1605.2 102H1594.2V112.1ZM1580.1 112.1H1592.2V102H1580.1V112.1ZM1572.5 102.1C1570.8 102.1 1569.4 102.6 1568.4 103.5C1567.4 104.4 1566.9 105.7 1566.9 107.3C1566.9 108.7 1567.4 109.8 1568.4 110.8C1569.4 111.8 1570.8 112.2 1572.5 112.2H1578V102.1H1572.5V102.1ZM1580.1 99.9H1592.2V80.5C1592.2 78.7 1591.7 77.3001 1590.5 76.1001C1589.4 75.0001 1587.9 74.4 1586.1 74.4C1584.3 74.4 1582.9 74.9001 1581.7 76.1001C1580.6 77.2001 1580 78.7 1580 80.5V99.9H1580.1Z" fill="#3D9266"/>
<path d="M1682 176.3C1674.3 176.3 1667.6 174.6 1661.7 171.3C1655.8 167.9 1651.2 163.3 1647.9 157.4C1644.5 151.5 1642.9 144.7 1642.9 137C1642.9 129.2 1644.6 122.4 1647.9 116.5C1651.3 110.6 1655.9 106 1661.7 102.6C1667.6 99.2 1674.3 97.6 1682 97.6C1689.6 97.6 1696.3 99.3 1702.1 102.6C1708 106 1712.6 110.6 1715.9 116.5C1719.3 122.4 1720.9 129.2 1720.9 137C1720.9 144.7 1719.2 151.4 1715.9 157.4C1712.6 163.3 1708 167.9 1702.1 171.3C1696.4 174.6 1689.6 176.3 1682 176.3ZM1682 163.5C1686.9 163.5 1691.3 162.4 1695 160.1C1698.8 157.8 1701.7 154.7 1703.9 150.7C1706 146.7 1707.1 142.1 1707.1 136.9C1707.1 131.7 1706 127.1 1703.9 123.1C1701.8 119.1 1698.8 115.9 1695 113.7C1691.2 111.4 1686.9 110.3 1682 110.3C1677.1 110.3 1672.7 111.4 1669 113.7C1665.3 116 1662.2 119.1 1660.1 123.1C1657.9 127.1 1656.8 131.7 1656.8 136.9C1656.8 142.1 1657.9 146.7 1660.1 150.7C1662.3 154.7 1665.3 157.8 1669 160.1C1672.7 162.4 1677.1 163.5 1682 163.5Z" fill="#3D9266"/>
<path d="M1682 177.4C1674.2 177.4 1667.2 175.7 1661.2 172.2C1655.2 168.8 1650.4 164 1647 157.9C1643.6 151.9 1641.8 144.8 1641.8 137C1641.8 129.1 1643.5 122 1647 116C1650.4 110 1655.2 105.1 1661.2 101.7C1667.2 98.3 1674.2 96.5 1682 96.5C1689.7 96.5 1696.7 98.2 1702.7 101.7C1708.7 105.1 1713.5 109.9 1716.9 116C1720.3 122 1722.1 129.1 1722.1 137C1722.1 144.8 1720.4 151.8 1717 157.9C1713.6 164 1708.8 168.8 1702.8 172.2C1696.8 175.6 1689.8 177.4 1682 177.4ZM1682 98.7C1674.6 98.7 1667.9 100.3 1662.2 103.6C1656.5 106.8 1652 111.4 1648.8 117.1C1645.6 122.8 1643.9 129.5 1643.9 137.1C1643.9 144.5 1645.5 151.2 1648.8 156.9C1652 162.6 1656.6 167.2 1662.2 170.4C1667.9 173.6 1674.5 175.3 1682 175.3C1689.5 175.3 1696.1 173.7 1701.8 170.4C1707.5 167.2 1712 162.6 1715.2 156.9C1718.4 151.2 1720 144.5 1720 137.1C1720 129.6 1718.4 122.8 1715.1 117.1C1711.9 111.4 1707.3 106.8 1701.7 103.6C1695.9 100.3 1689.3 98.7 1682 98.7ZM1682 164.6C1676.9 164.6 1672.3 163.4 1668.4 161C1664.5 158.6 1661.3 155.4 1659.1 151.2C1656.8 147.1 1655.7 142.3 1655.7 136.9C1655.7 131.5 1656.8 126.7 1659.1 122.6C1661.4 118.4 1664.5 115.1 1668.4 112.8C1672.3 110.4 1676.9 109.2 1682 109.2C1687.1 109.2 1691.7 110.4 1695.6 112.8C1699.5 115.2 1702.6 118.5 1704.9 122.6C1707.1 126.8 1708.2 131.6 1708.2 136.9C1708.2 142.3 1707.1 147 1704.9 151.2C1702.7 155.3 1699.6 158.6 1695.7 161C1691.6 163.4 1687.1 164.6 1682 164.6ZM1682 111.4C1677.3 111.4 1673.1 112.5 1669.5 114.7C1665.9 116.9 1663 119.9 1661 123.7C1658.9 127.5 1657.9 132 1657.9 137C1657.9 142 1659 146.5 1661 150.2C1663.1 154 1666 157 1669.6 159.2C1673.2 161.4 1677.4 162.5 1682.1 162.5C1686.8 162.5 1691 161.4 1694.6 159.2C1698.2 157 1701 154 1703.1 150.2C1705.1 146.4 1706.2 141.9 1706.2 136.9C1706.2 131.9 1705.2 127.4 1703.1 123.6C1701.1 119.8 1698.2 116.7 1694.6 114.6C1690.9 112.5 1686.7 111.4 1682 111.4Z" fill="#3D9266"/>
<path d="M447 286.1C444.1 286.1 441.4 285.6 438.9 284.5C436.4 283.4 434.2 281.9 432.3 279.9C430.4 278 429 275.7 427.9 273.1C426.8 270.5 426.3 267.7 426.3 264.6C426.3 261.6 426.8 258.8 427.9 256.2C429 253.6 430.4 251.3 432.3 249.4C434.2 247.5 436.4 245.9 438.9 244.8C441.4 243.7 444.1 243.1 447.1 243.1C449.9 243.1 452.2 243.5 454.2 244.2C456.2 244.9 458.2 246.1 460.2 247.7C460.5 247.9 460.7 248.1 460.9 248.4C461.1 248.6 461.2 248.9 461.2 249.1C461.3 249.3 461.3 249.6 461.3 249.9C461.3 250.6 461.1 251.1 460.6 251.6C460.1 252 459.5 252.3 458.9 252.3C458.2 252.4 457.6 252.1 456.9 251.6C455.6 250.5 454.2 249.6 452.8 249C451.4 248.4 449.5 248.1 447.2 248.1C445.1 248.1 443.1 248.5 441.2 249.4C439.3 250.3 437.7 251.4 436.3 252.9C434.9 254.4 433.8 256.1 433 258.1C432.2 260.1 431.8 262.2 431.8 264.5C431.8 266.8 432.2 268.9 433 270.9C433.8 272.9 434.9 274.6 436.3 276.1C437.7 277.6 439.3 278.8 441.2 279.6C443.1 280.4 445 280.9 447.2 280.9C449 280.9 450.8 280.6 452.4 280C454 279.4 455.6 278.5 457.1 277.4C457.7 276.9 458.4 276.7 459 276.8C459.6 276.9 460.2 277.1 460.6 277.6C461 278 461.2 278.7 461.2 279.5C461.2 279.9 461.1 280.2 461 280.5C460.9 280.8 460.6 281.2 460.4 281.4C458.5 282.9 456.4 284.1 454.2 284.9C451.7 285.7 449.4 286.1 447 286.1Z" fill="#3D9266"/>
<path d="M447 287.1C444 287.1 441.1 286.5 438.5 285.4C435.9 284.3 433.5 282.6 431.6 280.6C429.6 278.6 428.1 276.2 427 273.4C425.9 270.7 425.3 267.7 425.3 264.5C425.3 261.4 425.9 258.4 427 255.7C428.1 253 429.7 250.6 431.6 248.6C433.6 246.6 435.9 244.9 438.5 243.8C441.1 242.6 444 242 447.1 242C450 242 452.5 242.4 454.6 243.1C456.7 243.9 458.8 245.1 460.9 246.8C461.2 247.1 461.5 247.4 461.8 247.7C462 248 462.2 248.4 462.3 248.7C462.4 249 462.4 249.4 462.4 249.8C462.4 250.8 462 251.6 461.3 252.3C460.6 252.9 459.8 253.3 458.9 253.3C458 253.4 457 253.1 456.2 252.4C454.9 251.3 453.6 250.5 452.3 249.9C451 249.4 449.3 249.1 447.1 249.1C445.2 249.1 443.3 249.5 441.6 250.3C439.9 251.1 438.3 252.2 437 253.6C435.7 255 434.6 256.6 433.9 258.5C433.2 260.3 432.8 262.4 432.8 264.5C432.8 266.6 433.2 268.7 433.9 270.5C434.6 272.4 435.7 274 437 275.4C438.3 276.8 439.9 277.9 441.6 278.7C444.8 280.1 448.7 280.2 451.9 279C453.4 278.4 454.9 277.6 456.3 276.5C457.2 275.9 458 275.6 458.9 275.7C459.8 275.8 460.5 276.1 461.2 276.8C461.8 277.4 462.1 278.3 462.1 279.4C462.1 279.9 462 280.4 461.8 280.9C461.6 281.4 461.3 281.8 460.9 282.2C458.8 283.9 456.6 285.1 454.3 285.9C452 286.7 449.5 287.1 447 287.1ZM447 244.1C444.2 244.1 441.6 244.6 439.3 245.7C436.9 246.8 434.8 248.2 433.1 250.1C431.3 251.9 429.9 254.1 428.9 256.6C427.9 259.1 427.4 261.7 427.4 264.6C427.4 267.5 427.9 270.2 428.9 272.7C429.9 275.2 431.3 277.4 433.1 279.2C434.9 281 437 282.5 439.4 283.5C443.8 285.4 449.1 285.6 453.7 283.9C455.8 283.2 457.8 282 459.6 280.6C459.7 280.5 459.8 280.3 459.9 280.1C460 279.9 460 279.7 460 279.5C460 279 459.9 278.6 459.7 278.4C459.4 278.1 459.2 278 458.8 278C458.4 278 458 278.1 457.6 278.4C456 279.6 454.4 280.5 452.7 281.1C448.9 282.5 444.5 282.4 440.8 280.8C438.8 279.9 437.1 278.6 435.6 277C434.1 275.4 432.9 273.5 432.1 271.4C431.3 269.3 430.8 267 430.8 264.6C430.8 262.2 431.2 260 432.1 257.9C432.9 255.8 434.1 253.9 435.6 252.3C437.1 250.7 438.9 249.4 440.8 248.5C442.8 247.6 444.9 247.1 447.2 247.1C449.7 247.1 451.7 247.4 453.2 248.1C454.7 248.8 456.2 249.7 457.6 250.9C458 251.2 458.4 251.3 458.8 251.3C459.3 251.3 459.6 251.1 459.9 250.8C460.2 250.6 460.3 250.3 460.3 249.9C460.3 249.7 460.3 249.5 460.2 249.3C460.2 249.2 460.1 249.1 460 249C459.9 248.9 459.8 248.7 459.6 248.6C457.7 247 455.8 245.9 453.9 245.2C451.9 244.5 449.6 244.1 447 244.1Z" fill="#3D9266"/>
<path d="M525 286.4C521.6 286.4 518.5 285.8 515.9 284.5C513.3 283.2 511.2 281.5 509.7 279.2C508.2 276.9 507.5 274.4 507.5 271.5V246.4C507.5 245.6 507.8 244.9 508.3 244.4C508.8 243.9 509.5 243.6 510.3 243.6C511.1 243.6 511.8 243.9 512.3 244.4C512.8 244.9 513.1 245.6 513.1 246.4V271.5C513.1 273.4 513.6 275.1 514.6 276.6C515.6 278.1 517 279.2 518.8 280.1C520.6 280.9 522.7 281.4 525 281.4C527.3 281.4 529.2 281 531 280.1C532.7 279.3 534.1 278.1 535.1 276.6C536.1 275.1 536.6 273.4 536.6 271.5V246.4C536.6 245.6 536.9 244.9 537.4 244.4C537.9 243.9 538.6 243.6 539.4 243.6C540.2 243.6 540.9 243.9 541.4 244.4C541.9 244.9 542.2 245.6 542.2 246.4V271.5C542.2 274.4 541.5 277 540 279.2C538.6 281.5 536.5 283.2 534 284.5C531.3 285.8 528.3 286.4 525 286.4Z" fill="#3D9266"/>
<path d="M525 287.4C521.4 287.4 518.2 286.7 515.4 285.4C512.6 284.1 510.4 282.2 508.8 279.7C507.2 277.3 506.4 274.5 506.4 271.4V246.3C506.4 245.2 506.8 244.2 507.5 243.5C509 242 511.6 242.1 513 243.5C513.7 244.2 514.1 245.1 514.1 246.3V271.4C514.1 273.1 514.5 274.6 515.4 275.9C516.3 277.2 517.6 278.3 519.2 279C520.9 279.8 522.8 280.2 525 280.2C527.1 280.2 528.9 279.8 530.5 279C532.1 278.2 533.3 277.2 534.2 275.9C535.1 274.6 535.5 273.1 535.5 271.4V246.3C535.5 245.2 535.9 244.3 536.6 243.5C538.1 242 540.7 242.1 542.1 243.5C542.8 244.2 543.1 245.1 543.1 246.2V271.3C543.1 274.4 542.3 277.2 540.8 279.6C539.3 282 537.1 283.9 534.3 285.3C531.6 286.8 528.5 287.4 525 287.4ZM510.2 244.7C509.7 244.7 509.3 244.9 508.9 245.2C508.6 245.5 508.4 245.9 508.4 246.5V271.6C508.4 274.3 509.1 276.7 510.5 278.7C511.9 280.8 513.8 282.4 516.3 283.6C518.8 284.8 521.7 285.4 525 285.4C528.1 285.4 531 284.8 533.4 283.6C535.8 282.4 537.7 280.8 539 278.7C540.3 276.6 541 274.2 541 271.5V246.4C541 245.8 540.9 245.4 540.5 245.1C539.9 244.5 538.7 244.5 538 245.1C537.7 245.4 537.5 245.8 537.5 246.4V271.5C537.5 273.6 536.9 275.6 535.8 277.2C534.7 278.8 533.2 280.1 531.3 281.1C529.4 282 527.3 282.5 524.9 282.5C522.4 282.5 520.2 282 518.3 281.1C516.3 280.2 514.8 278.9 513.6 277.3C512.5 275.6 511.9 273.7 511.9 271.6V246.5C511.9 246 511.8 245.6 511.4 245.2C511.2 244.8 510.8 244.7 510.2 244.7Z" fill="#3D9266"/>
<path d="M593.1 285.5C592.3 285.5 591.7 285.2 591.1 284.7C590.6 284.2 590.3 283.5 590.3 282.7V246.4C590.3 245.6 590.6 245 591.1 244.4C591.6 243.9 592.3 243.6 593 243.6C593.8 243.6 594.4 243.9 595 244.4C595.5 244.9 595.8 245.6 595.8 246.4V279.9H615.2C616 279.9 616.6 280.2 617.2 280.7C617.7 281.2 618 281.9 618 282.7C618 283.5 617.7 284.1 617.2 284.7C616.7 285.2 616 285.5 615.2 285.5H593.1Z" fill="#3D9266"/>
<path d="M615.3 286.6H593.1C592 286.6 591.1 286.2 590.4 285.5C589.7 284.8 589.3 283.9 589.3 282.8V246.5C589.3 245.4 589.7 244.5 590.4 243.8C591.9 242.3 594.4 242.4 595.8 243.8C596.5 244.5 596.9 245.5 596.9 246.5V279H615.3C616.4 279 617.3 279.4 618 280.1C618.7 280.8 619.1 281.8 619.1 282.8C619.1 283.9 618.7 284.8 618 285.5C617.3 286.2 616.4 286.6 615.3 286.6ZM593.1 244.7C592.6 244.7 592.3 244.9 591.9 245.2C591.6 245.5 591.4 245.9 591.4 246.4V282.7C591.4 283.2 591.6 283.6 591.9 283.9C592.2 284.2 592.6 284.4 593.1 284.4H615.3C615.8 284.4 616.2 284.2 616.5 283.9C616.8 283.6 617 283.2 617 282.7C617 282.2 616.8 281.8 616.5 281.5C616.2 281.2 615.8 281 615.3 281H594.8V246.4C594.8 245.9 594.6 245.5 594.3 245.2C594 244.8 593.6 244.7 593.1 244.7Z" fill="#3D9266"/>
<path d="M653.4 248.8C652.6 248.8 652 248.6 651.5 248.1C651 247.6 650.8 247 650.8 246.2C650.8 245.4 651 244.8 651.5 244.3C652 243.8 652.6 243.6 653.4 243.6H682.1C682.8 243.6 683.5 243.8 684 244.3C684.5 244.8 684.7 245.4 684.7 246.2C684.7 246.9 684.5 247.6 684 248.1C683.5 248.6 682.9 248.8 682.1 248.8H653.4ZM667.8 285.5C667 285.5 666.4 285.2 665.8 284.7C665.2 284.2 665 283.5 665 282.7V243.6H670.6V282.7C670.6 283.5 670.3 284.1 669.8 284.7C669.3 285.3 668.5 285.5 667.8 285.5Z" fill="#3D9266"/>
<path d="M667.8 286.6C666.7 286.6 665.8 286.2 665.1 285.5C664.4 284.8 664 283.8 664 282.8V249.9H653.5C652.5 249.9 651.6 249.6 650.9 248.9C650.2 248.2 649.9 247.3 649.9 246.3C649.9 245.3 650.2 244.4 650.9 243.7C651.6 243 652.5 242.7 653.5 242.7H682.2C683.2 242.7 684.1 243 684.8 243.7C685.5 244.4 685.8 245.3 685.8 246.3C685.8 247.3 685.5 248.2 684.8 248.9C684.1 249.6 683.2 249.9 682.2 249.9H671.7V282.8C671.7 283.9 671.3 284.8 670.6 285.5C669.8 286.2 668.8 286.6 667.8 286.6ZM666 249.8V282.7C666 283.2 666.2 283.6 666.5 283.9C667.2 284.6 668.3 284.6 669 283.9C669.3 283.6 669.5 283.2 669.5 282.7V249.8H666ZM671.6 247.7H682.1C682.6 247.7 682.9 247.6 683.2 247.3C683.5 247 683.6 246.7 683.6 246.2C683.6 245.7 683.5 245.4 683.2 245.1C682.9 244.8 682.6 244.7 682.1 244.7H671.6V247.7ZM666 247.7H669.5V244.7H666V247.7ZM653.4 244.7C652.9 244.7 652.6 244.8 652.3 245.1C652 245.4 651.9 245.7 651.9 246.2C651.9 246.7 652 247 652.3 247.3C652.6 247.6 652.9 247.7 653.4 247.7H663.9V244.7H653.4Z" fill="#3D9266"/>
<path d="M731.2 285.5C730.4 285.5 729.8 285.2 729.2 284.7C728.7 284.2 728.4 283.5 728.4 282.7V246.4C728.4 245.6 728.7 244.9 729.2 244.4C729.7 243.9 730.4 243.6 731.2 243.6C732 243.6 732.7 243.9 733.2 244.4C733.7 244.9 734 245.6 734 246.4V282.7C734 283.5 733.7 284.1 733.2 284.7C732.7 285.3 732 285.5 731.2 285.5Z" fill="#3D9266"/>
<path d="M731.2 286.6C730.1 286.6 729.2 286.2 728.5 285.5C727.8 284.8 727.4 283.8 727.4 282.8V246.5C727.4 245.4 727.8 244.4 728.5 243.7C730 242.2 732.6 242.3 734 243.7C734.7 244.4 735.1 245.3 735.1 246.5V282.8C735.1 283.9 734.7 284.8 734 285.5C733.2 286.2 732.3 286.6 731.2 286.6ZM731.2 244.7C730.7 244.7 730.3 244.9 729.9 245.2C729.6 245.5 729.4 245.9 729.4 246.5V282.8C729.4 283.3 729.6 283.7 729.9 284C730.6 284.7 731.8 284.7 732.4 284C732.7 283.7 732.9 283.3 732.9 282.7V246.4C732.9 245.9 732.8 245.5 732.4 245.1C732.1 244.8 731.7 244.7 731.2 244.7Z" fill="#3D9266"/>
<path d="M796.6 285.5C795.5 285.5 794.6 284.9 794.1 283.7L778.4 247.8C777.9 246.6 777.8 245.6 778.2 244.8C778.6 244 779.3 243.6 780.5 243.6C781.8 243.6 782.6 244.2 783.1 245.3L796.9 278.4H796.3L810.4 245.3C810.7 244.7 811 244.2 811.4 244C811.8 243.8 812.3 243.7 812.9 243.7C814 243.7 814.7 244.1 815.1 244.9C815.5 245.7 815.5 246.5 815.1 247.4L799.2 283.8C798.9 284.4 798.6 284.8 798.2 285.1C797.7 285.4 797.2 285.5 796.6 285.5Z" fill="#3D9266"/>
<path d="M796.6 286.6C795.5 286.6 794 286.2 793.1 284.2L777.4 248.2C776.8 246.7 776.7 245.4 777.3 244.3C777.7 243.5 778.6 242.5 780.5 242.5C782.2 242.5 783.4 243.3 784 244.8L796.5 274.9L809.3 244.8C809.7 243.9 810.1 243.3 810.7 243C811.2 242.7 811.9 242.5 812.8 242.5C814.7 242.5 815.5 243.4 816 244.2C816.6 245.3 816.6 246.5 816 247.7L800.1 284.1C799.8 284.8 799.3 285.4 798.8 285.8C798.2 286.4 797.5 286.6 796.6 286.6ZM780.5 244.7C779.5 244.7 779.3 245.1 779.2 245.3C778.9 245.8 779 246.5 779.4 247.4L795.1 283.3C795.6 284.3 796.1 284.4 796.7 284.4C797.1 284.4 797.4 284.3 797.6 284.2C797.9 284 798.1 283.7 798.3 283.3L814.2 246.9C814.6 246.1 814.4 245.6 814.3 245.3C814.2 245 813.9 244.7 813 244.7C812.4 244.7 812.2 244.8 812 244.9C811.9 245 811.7 245.1 811.4 245.7L797.8 277.7L798.5 279.5H794.7L795.4 277.7L782.1 245.7C781.8 245 781.3 244.7 780.5 244.7Z" fill="#3D9266"/>
<path d="M853.9 285.5C852.9 285.5 852.1 285.1 851.6 284.2C851.1 283.3 851 282.4 851.4 281.5L866.5 245.5C867 244.2 867.9 243.6 869.1 243.6C870.4 243.6 871.3 244.2 871.7 245.5L886.8 281.6C887.2 282.6 887.1 283.5 886.6 284.3C886.1 285.1 885.3 285.5 884.3 285.5C883.8 285.5 883.3 285.3 882.8 285C882.3 284.7 882 284.3 881.8 283.7L868.5 250.7H870L856.5 283.7C856.3 284.3 855.9 284.7 855.4 285C854.9 285.4 854.4 285.5 853.9 285.5ZM856.8 276.3L858.9 271.7H879.9L882 276.3H856.8Z" fill="#3D9266"/>
<path d="M884.4 286.6C883.7 286.6 883 286.4 882.3 286C881.6 285.6 881.1 285 880.8 284.2L878 277.4H860.2L857.4 284.3C857.1 285.1 856.5 285.7 855.9 286.1C855.3 286.5 854.6 286.7 853.9 286.7C852.5 286.7 851.4 286.1 850.7 284.9C850 283.8 849.9 282.5 850.5 281.2L865.6 245.2C866.5 243.1 868.1 242.7 869.2 242.7C870.9 242.7 872.2 243.6 872.8 245.3L887.9 281.4C888.4 282.7 888.3 284 887.6 285.1C886.9 286 885.8 286.6 884.4 286.6ZM880.4 277.4L882.8 283.5C882.9 283.8 883.1 284.1 883.4 284.3C883.7 284.5 884 284.6 884.4 284.6C885.1 284.6 885.5 284.4 885.8 283.9C886 283.6 886.2 283 885.9 282.1L870.8 246C870.5 245.1 870 244.8 869.1 244.8C868.5 244.8 867.9 244.9 867.4 246L852.3 282C852 282.7 852 283.2 852.4 283.8C852.9 284.6 853.8 284.9 854.7 284.3C855 284.1 855.2 283.9 855.4 283.5L857.9 277.5H855L858.1 270.8H860.6L868 252.8L866.8 249.9H871.4L870.2 252.8L877.5 270.8H880.5L883.6 277.5H880.4V277.4ZM879.5 275.2H880.4L879.2 272.7H878.4L879.5 275.2ZM861.1 275.2H877.2L876.2 272.7H862.1L861.1 275.2ZM858.4 275.2H858.8L859.8 272.7H859.5L858.4 275.2ZM863 270.6H875.3L869.2 255.4L863 270.6Z" fill="#3D9266"/>
<path d="M982.1 248.8C981.3 248.8 980.7 248.6 980.2 248.1C979.7 247.6 979.5 247 979.5 246.2C979.5 245.4 979.7 244.8 980.2 244.3C980.7 243.8 981.3 243.6 982.1 243.6H1010.8C1011.6 243.6 1012.2 243.8 1012.7 244.3C1013.2 244.8 1013.4 245.4 1013.4 246.2C1013.4 246.9 1013.2 247.6 1012.7 248.1C1012.2 248.6 1011.6 248.8 1010.8 248.8H982.1ZM996.5 285.5C995.7 285.5 995.1 285.2 994.5 284.7C994 284.2 993.7 283.5 993.7 282.7V243.6H999.3V282.7C999.3 283.5 999 284.1 998.5 284.7C998 285.3 997.3 285.5 996.5 285.5Z" fill="#3D9266"/>
<path d="M996.5 286.6C995.4 286.6 994.5 286.2 993.8 285.5C993.1 284.8 992.7 283.8 992.7 282.8V249.9H982.2C981.2 249.9 980.3 249.6 979.6 248.9C978.9 248.2 978.6 247.3 978.6 246.3C978.6 245.3 978.9 244.4 979.6 243.7C980.3 243 981.2 242.7 982.2 242.7H1010.9C1011.9 242.7 1012.8 243 1013.5 243.7C1014.2 244.4 1014.5 245.3 1014.5 246.3C1014.5 247.3 1014.2 248.2 1013.5 248.9C1012.8 249.6 1011.9 249.9 1010.9 249.9H1000.4V282.8C1000.4 283.9 1000 284.8 999.3 285.5C998.6 286.2 997.6 286.6 996.5 286.6ZM994.8 249.8V282.7C994.8 283.2 995 283.6 995.3 283.9C996 284.6 997.1 284.6 997.8 283.9C998.1 283.6 998.3 283.2 998.3 282.7V249.8H994.8ZM1000.4 247.7H1010.9C1011.4 247.7 1011.7 247.6 1012 247.3C1012.3 247 1012.4 246.7 1012.4 246.2C1012.4 245.7 1012.3 245.4 1012 245.1C1011.7 244.8 1011.4 244.7 1010.9 244.7H1000.4V247.7ZM994.8 247.7H998.3V244.7H994.8V247.7ZM982.1 244.7C981.6 244.7 981.3 244.8 981 245.1C980.7 245.4 980.6 245.7 980.6 246.2C980.6 246.7 980.7 247 981 247.3C981.3 247.6 981.6 247.7 982.1 247.7H992.6V244.7H982.1Z" fill="#3D9266"/>
<path d="M1074.7 286.4C1071.3 286.4 1068.2 285.8 1065.6 284.5C1063 283.2 1060.9 281.5 1059.4 279.2C1057.9 276.9 1057.2 274.4 1057.2 271.5V246.4C1057.2 245.6 1057.5 244.9 1058 244.4C1058.5 243.9 1059.2 243.6 1060 243.6C1060.8 243.6 1061.5 243.9 1062 244.4C1062.5 244.9 1062.8 245.6 1062.8 246.4V271.5C1062.8 273.4 1063.3 275.1 1064.3 276.6C1065.3 278.1 1066.7 279.2 1068.5 280.1C1070.3 280.9 1072.4 281.4 1074.7 281.4C1077 281.4 1078.9 281 1080.7 280.1C1082.4 279.3 1083.8 278.1 1084.8 276.6C1085.8 275.1 1086.3 273.4 1086.3 271.5V246.4C1086.3 245.6 1086.6 244.9 1087.1 244.4C1087.6 243.9 1088.3 243.6 1089.1 243.6C1089.9 243.6 1090.6 243.9 1091.1 244.4C1091.6 244.9 1091.9 245.6 1091.9 246.4V271.5C1091.9 274.4 1091.2 277 1089.7 279.2C1088.3 281.5 1086.2 283.2 1083.7 284.5C1081 285.8 1078 286.4 1074.7 286.4Z" fill="#3D9266"/>
<path d="M1074.7 287.4C1071.1 287.4 1067.9 286.7 1065.1 285.4C1062.3 284.1 1060.1 282.2 1058.5 279.7C1056.9 277.3 1056.1 274.5 1056.1 271.4V246.3C1056.1 245.2 1056.5 244.3 1057.2 243.5C1058.7 242 1061.3 242.1 1062.7 243.5C1063.4 244.2 1063.8 245.2 1063.8 246.3V271.4C1063.8 273.1 1064.2 274.6 1065.1 275.9C1066 277.2 1067.3 278.3 1068.9 279C1070.6 279.8 1072.5 280.2 1074.7 280.2C1076.8 280.2 1078.6 279.8 1080.2 279C1081.8 278.2 1083 277.2 1083.9 275.9C1084.8 274.6 1085.2 273.1 1085.2 271.4V246.3C1085.2 245.2 1085.6 244.2 1086.3 243.5C1087.8 242 1090.4 242.1 1091.8 243.5C1092.5 244.2 1092.8 245.1 1092.8 246.2V271.3C1092.8 274.4 1092 277.2 1090.5 279.6C1089 282 1086.8 283.9 1084 285.3C1081.3 286.8 1078.2 287.4 1074.7 287.4ZM1059.9 244.7C1059.4 244.7 1059 244.9 1058.6 245.2C1058.3 245.5 1058.1 245.9 1058.1 246.5V271.6C1058.1 274.3 1058.8 276.7 1060.2 278.7C1061.6 280.8 1063.5 282.4 1066 283.6C1068.5 284.8 1071.4 285.4 1074.7 285.4C1077.8 285.4 1080.7 284.8 1083.1 283.6C1085.5 282.4 1087.4 280.8 1088.7 278.7C1090 276.6 1090.7 274.2 1090.7 271.5V246.4C1090.7 245.9 1090.6 245.4 1090.2 245.1C1089.6 244.5 1088.4 244.5 1087.7 245.1C1087.4 245.4 1087.2 245.8 1087.2 246.4V271.5C1087.2 273.6 1086.6 275.6 1085.5 277.2C1084.4 278.8 1082.9 280.1 1081 281.1C1079.1 282 1077 282.5 1074.6 282.5C1072.1 282.5 1069.9 282 1068 281.1C1066 280.2 1064.5 278.9 1063.3 277.3C1062.2 275.6 1061.6 273.7 1061.6 271.6V246.5C1061.6 246 1061.5 245.6 1061.1 245.2C1060.9 244.8 1060.5 244.7 1059.9 244.7Z" fill="#3D9266"/>
<path d="M1207.7 285.5C1206.6 285.5 1205.7 284.9 1205.2 283.7L1189.5 247.8C1189 246.6 1188.9 245.6 1189.3 244.8C1189.7 244 1190.4 243.6 1191.6 243.6C1192.9 243.6 1193.7 244.2 1194.2 245.3L1208 278.4H1207.4L1221.5 245.3C1221.8 244.7 1222.1 244.2 1222.5 244C1222.9 243.8 1223.4 243.7 1224 243.7C1225.1 243.7 1225.8 244.1 1226.2 244.9C1226.6 245.7 1226.6 246.5 1226.2 247.4L1210.3 283.8C1210 284.4 1209.7 284.8 1209.3 285.1C1208.8 285.4 1208.3 285.5 1207.7 285.5Z" fill="#3D9266"/>
<path d="M1207.7 286.6C1206.6 286.6 1205.1 286.2 1204.2 284.2L1188.5 248.2C1187.9 246.7 1187.8 245.4 1188.4 244.3C1188.8 243.5 1189.7 242.5 1191.6 242.5C1193.3 242.5 1194.5 243.3 1195.1 244.8L1207.6 274.9L1220.4 244.8C1220.8 243.9 1221.2 243.3 1221.8 243C1222.3 242.7 1223 242.5 1223.9 242.5C1225.8 242.5 1226.6 243.4 1227.1 244.2C1227.7 245.3 1227.7 246.5 1227.1 247.7L1211.2 284.1C1210.9 284.8 1210.4 285.4 1209.9 285.8C1209.3 286.4 1208.5 286.6 1207.7 286.6ZM1191.5 244.7C1190.5 244.7 1190.3 245.1 1190.2 245.3C1189.9 245.8 1190 246.5 1190.4 247.4L1206.1 283.3C1206.6 284.3 1207.1 284.4 1207.7 284.4C1208.1 284.4 1208.4 284.3 1208.6 284.2C1208.9 284 1209.1 283.7 1209.3 283.3L1225.2 246.9C1225.6 246.1 1225.4 245.6 1225.3 245.3C1225.2 245 1224.9 244.7 1224 244.7C1223.4 244.7 1223.2 244.8 1223 244.9C1222.9 245 1222.7 245.1 1222.4 245.7L1208.8 277.7L1209.5 279.5H1205.7L1206.4 277.7L1193.1 245.7C1192.8 245 1192.4 244.7 1191.5 244.7Z" fill="#3D9266"/>
<path d="M1273.2 285.5C1272.4 285.5 1271.8 285.2 1271.2 284.7C1270.7 284.2 1270.4 283.5 1270.4 282.7V246.4C1270.4 245.6 1270.7 244.9 1271.2 244.4C1271.7 243.9 1272.4 243.6 1273.2 243.6C1274 243.6 1274.7 243.9 1275.2 244.4C1275.7 244.9 1276 245.6 1276 246.4V282.7C1276 283.5 1275.7 284.1 1275.2 284.7C1274.7 285.3 1274 285.5 1273.2 285.5Z" fill="#3D9266"/>
<path d="M1273.2 286.6C1272.1 286.6 1271.2 286.2 1270.5 285.5C1269.8 284.8 1269.4 283.8 1269.4 282.8V246.5C1269.4 245.4 1269.8 244.5 1270.5 243.7C1272 242.2 1274.6 242.3 1276 243.7C1276.7 244.4 1277.1 245.4 1277.1 246.5V282.8C1277.1 283.9 1276.7 284.8 1276 285.5C1275.2 286.2 1274.3 286.6 1273.2 286.6ZM1273.2 244.7C1272.7 244.7 1272.3 244.9 1271.9 245.2C1271.6 245.5 1271.4 245.9 1271.4 246.5V282.8C1271.4 283.3 1271.6 283.7 1271.9 284C1272.6 284.7 1273.8 284.7 1274.4 284C1274.7 283.7 1274.9 283.3 1274.9 282.7V246.4C1274.9 245.9 1274.8 245.5 1274.4 245.1C1274.1 244.8 1273.7 244.7 1273.2 244.7Z" fill="#3D9266"/>
<path d="M1327.1 285.5C1326.3 285.5 1325.7 285.2 1325.1 284.7C1324.5 284.2 1324.3 283.5 1324.3 282.7V246.4C1324.3 245.6 1324.6 244.9 1325.1 244.4C1325.6 243.9 1326.3 243.6 1327.1 243.6H1336.8C1339.9 243.6 1342.7 244.1 1345.2 245.1C1347.7 246.1 1349.9 247.6 1351.8 249.4C1353.7 251.3 1355.1 253.5 1356.1 256C1357.1 258.5 1357.6 261.3 1357.6 264.4C1357.6 267.5 1357.1 270.3 1356.1 272.9C1355.1 275.5 1353.7 277.7 1351.8 279.6C1349.9 281.5 1347.8 282.9 1345.2 283.9C1342.7 284.9 1339.9 285.4 1336.8 285.4H1327.1V285.5ZM1329.8 280.6H1336.7C1339.7 280.6 1342.4 279.9 1344.7 278.5C1347 277.1 1348.8 275.2 1350.1 272.8C1351.4 270.4 1352.1 267.6 1352.1 264.5C1352.1 261.4 1351.4 258.6 1350.1 256.2C1348.8 253.8 1347 251.9 1344.7 250.6C1342.4 249.2 1339.7 248.6 1336.7 248.6H1329.8V280.6Z" fill="#3D9266"/>
<path d="M1336.8 286.6H1327.1C1326 286.6 1325.1 286.2 1324.4 285.5C1323.7 284.8 1323.3 283.8 1323.3 282.8V246.5C1323.3 245.4 1323.7 244.5 1324.4 243.7C1325.1 243 1326.1 242.6 1327.1 242.6H1336.8C1340 242.6 1343 243.1 1345.6 244.2C1348.2 245.3 1350.6 246.8 1352.5 248.8C1354.4 250.8 1356 253.1 1357 255.8C1358 258.5 1358.6 261.4 1358.6 264.6C1358.6 267.8 1358.1 270.8 1357 273.4C1355.9 276.1 1354.4 278.4 1352.5 280.4C1350.5 282.4 1348.2 283.9 1345.6 285C1342.9 286 1340 286.6 1336.8 286.6ZM1327.1 244.7C1326.6 244.7 1326.2 244.9 1325.8 245.2C1325.5 245.5 1325.3 245.9 1325.3 246.5V282.8C1325.3 283.3 1325.5 283.7 1325.8 284C1326.1 284.3 1326.5 284.5 1327 284.5H1336.7C1339.6 284.5 1342.3 284 1344.7 283C1347.1 282 1349.2 280.7 1350.9 278.9C1352.6 277.1 1354 275 1355 272.6C1356 270.2 1356.4 267.5 1356.4 264.5C1356.4 261.6 1355.9 258.9 1355 256.5C1354.1 254.1 1352.7 252 1350.9 250.2C1349.1 248.4 1347.1 247.1 1344.7 246.1C1342.3 245.1 1339.6 244.6 1336.7 244.6H1327.1V244.7ZM1336.8 281.6H1328.8V247.5H1336.8C1340 247.5 1342.8 248.2 1345.3 249.7C1347.8 251.1 1349.7 253.2 1351.1 255.7C1352.5 258.2 1353.2 261.2 1353.2 264.5C1353.2 267.8 1352.5 270.7 1351.1 273.3C1349.7 275.9 1347.7 277.9 1345.3 279.4C1342.8 280.9 1340 281.6 1336.8 281.6ZM1330.9 279.5H1336.8C1339.6 279.5 1342.1 278.9 1344.2 277.6C1346.3 276.3 1348 274.5 1349.3 272.3C1350.5 270.1 1351.2 267.4 1351.2 264.5C1351.2 261.5 1350.6 258.9 1349.3 256.7C1348.1 254.5 1346.4 252.7 1344.2 251.5C1342.1 250.2 1339.6 249.6 1336.8 249.6H1330.9V279.5Z" fill="#3D9266"/>
<path d="M1401.1 285.5C1400.1 285.5 1399.3 285.1 1398.8 284.2C1398.3 283.3 1398.2 282.4 1398.6 281.5L1413.7 245.5C1414.2 244.2 1415.1 243.6 1416.3 243.6C1417.6 243.6 1418.5 244.2 1418.9 245.5L1434 281.6C1434.4 282.6 1434.3 283.5 1433.8 284.3C1433.3 285.1 1432.5 285.5 1431.5 285.5C1431 285.5 1430.5 285.3 1430 285C1429.5 284.7 1429.2 284.3 1429 283.7L1415.7 250.7H1417.2L1403.7 283.7C1403.5 284.3 1403.1 284.7 1402.6 285C1402.1 285.4 1401.6 285.5 1401.1 285.5ZM1403.9 276.3L1406 271.7H1427L1429.1 276.3H1403.9Z" fill="#3D9266"/>
<path d="M1431.6 286.6C1430.9 286.6 1430.2 286.4 1429.5 286C1428.8 285.6 1428.3 285 1428 284.2L1425.2 277.4H1407.4L1404.6 284.3C1404.3 285.1 1403.7 285.7 1403.1 286.1C1402.5 286.5 1401.8 286.7 1401.1 286.7C1399.7 286.7 1398.6 286.1 1397.9 284.9C1397.2 283.8 1397.1 282.5 1397.7 281.2L1412.8 245.2C1413.7 243.1 1415.3 242.7 1416.4 242.7C1418.1 242.7 1419.4 243.6 1420 245.3L1435.1 281.4C1435.6 282.7 1435.5 284 1434.8 285.1C1434.1 286 1433 286.6 1431.6 286.6ZM1427.5 277.4L1429.9 283.5C1430 283.8 1430.2 284.1 1430.5 284.3C1430.8 284.5 1431.1 284.6 1431.5 284.6C1432.2 284.6 1432.6 284.4 1432.9 283.9C1433.1 283.6 1433.3 283 1433 282.1L1417.9 246C1417.6 245.1 1417.1 244.8 1416.2 244.8C1415.6 244.8 1415 244.9 1414.5 246L1399.4 282C1399.1 282.7 1399.1 283.2 1399.5 283.8C1400 284.6 1400.9 284.9 1401.8 284.3C1402.1 284.1 1402.3 283.9 1402.5 283.5L1405 277.5H1402.1L1405.2 270.8H1407.7L1415.1 252.8L1413.9 249.9H1418.5L1417.3 252.8L1424.6 270.8H1427.6L1430.7 277.5H1427.5V277.4ZM1426.7 275.2H1427.6L1426.4 272.7H1425.6L1426.7 275.2ZM1408.3 275.2H1424.4L1423.4 272.7H1409.3L1408.3 275.2ZM1405.6 275.2H1406L1407 272.7H1406.7L1405.6 275.2ZM1410.2 270.6H1422.5L1416.4 255.4L1410.2 270.6Z" fill="#3D9266"/>
</svg>
